# xmcd
#
# Track frame offsets: 
#        150
#        11981
#        27131
#        39240
#        56570
#        74789
#        84846
#        100442
#        119534
#        136236
#
# Disc length: 2020 seconds
#
# Revision: 0
# Processed by: cddbd v1.5.2PL0 Copyright (c) Steve Scherf et al.
# Submitted via: ExactAudioCopyFreeDBPlugin 1.0
#
DISCID=8607e20a
DTITLE=Bad Luck Womand and Her Misfortunes - Cursed
DYEAR=2016
DGENRE=blues
TTITLE0=Snatch and Grab It
TTITLE1=I Don't Know About You
TTITLE2=The Way You Love
TTITLE3=No More Love
TTITLE4=Bad Luck Woman
TTITLE5=That's A Pretty Good Love
TTITLE6=S'Pinach Song
TTITLE7=Take Our Time Together
TTITLE8=Went Down Easy
TTITLE9=Ay La Bah
EXTD=
EXTT0=
EXTT1=
EXTT2=
EXTT3=
EXTT4=
EXTT5=
EXTT6=
EXTT7=
EXTT8=
EXTT9=
PLAYORDER=
